<?xml version="1.0" encoding="utf-8"?>
<!-- Generator: Adobe Illustrator 21.0.0, SVG Export Plug-In . SVG Version: 6.00 Build 0)  -->
<svg version="1.1" id="图层_1" xmlns="http://www.w3.org/2000/svg" xmlns:xlink="http://www.w3.org/1999/xlink" x="0px" y="0px"
	 viewBox="0 0 14 14" style="enable-background:new 0 0 14 14;" xml:space="preserve">
<style type="text/css">
	.st0{fill:#B0C1D4;}
</style>
<title>Fill 1</title>
<desc>Created with Sketch.</desc>
<path id="Fill-1" class="st0" d="M10.3,0.3c-0.4-0.4-0.9-0.4-1.3,0c-0.4,0.4-0.4,0.9,0,1.3l0.3,0.3L4.4,5.3L3.3,4.2
	C3,3.9,2.4,3.9,2,4.2C1.7,4.6,1.7,5.1,2,5.5l6.4,6.4c0.4,0.4,0.9,0.4,1.3,0c0.4-0.4,0.4-0.9,0-1.3L8.7,9.6l3.5-4.9l0.3,0.3
	c0.4,0.4,0.9,0.4,1.3,0c0.4-0.4,0.4-0.9,0-1.3L10.3,0.3z M5.2,10c-1.2,1-3,2.7-3.4,3c-1,0.7-1.8,1-1.8,1s0.2-0.8,1-1.8
	c0.3-0.4,1.9-2.2,3-3.4L5.2,10z"/>
</svg>
