<?xml version="1.0" encoding="UTF-8"?>
<svg width="127px" height="144px" viewBox="0 0 127 144" version="1.1" xmlns="http://www.w3.org/2000/svg" xmlns:xlink="http://www.w3.org/1999/xlink">
    <!-- Generator: Sketch 43.1 (39012) - http://www.bohemiancoding.com/sketch -->
    <title>联系人</title>
    <desc>Created with Sketch.</desc>
    <defs>
        <polygon id="path-1" points="126.37 0.5 126.37 89.6991192 -2.93818225e-05 89.6991192 -2.93818225e-05 0.5 126.37 0.5"></polygon>
    </defs>
    <g id="空页面" stroke="none" stroke-width="1" fill="none" fill-rule="evenodd">
        <g id="社交推广-空页面" transform="translate(-1632.000000, -56.000000)">
            <g id="联系人" transform="translate(1632.000000, 57.000000)">
                <g id="Group-3" transform="translate(0.000000, 36.500000)">
                    <mask id="mask-2" fill="white">
                        <use xlink:href="#path-1"></use>
                    </mask>
                    <g id="Clip-2"></g>
                    <path d="M17.401,0.5 C17.401,0.5 7.635,6.031 2.401,16.5 C-4.599,30.5 4.401,60.5 20.401,68.5 C36.401,76.5 55.401,73.5 66.401,77.5 C77.401,81.5 80.401,93.5 97.401,88.5 C114.401,83.5 137.401,45.5 120.401,21.5 C103.401,-2.5 109.401,0.5 93.401,4.5 C77.401,8.5 17.401,0.5 17.401,0.5" id="Fill-1" fill="#F3F9FF" mask="url(#mask-2)"></path>
                </g>
                <path d="M4.401,141 L26.401,141" id="Stroke-4" stroke="#5488F9" stroke-width="3" stroke-linecap="round"></path>
                <path d="M37.401,141 L80.401,141" id="Stroke-6" stroke="#5488F9" stroke-width="3" stroke-linecap="round"></path>
                <path d="M92.401,141 L105.401,141" id="Stroke-8" stroke="#5488F9" stroke-width="3" stroke-linecap="round"></path>
                <path d="M105.5075,40.0059 C105.4855,37.8589 103.7095,36.1199 101.5615,36.1429 L96.9015,36.1919 L96.9015,82.4999 L66.9015,112.4999 L30.2685,112.4999 L30.2945,114.9939 C30.3175,117.1419 32.0925,118.8799 34.2405,118.8579 L76.3325,118.4129 L106.0155,88.0989 L105.5075,40.0059 Z" id="Fill-10" fill="#DCE9FF"></path>
                <path d="M84.901,24.5 L84.901,94.595 C84.901,96.743 83.144,98.5 80.996,98.5 L12.806,98.5 C10.658,98.5 8.901,96.743 8.901,94.595 L8.901,20.405 C8.901,18.257 10.658,16.5 12.806,16.5 L69.926,16.5" id="Stroke-12" stroke="#5488F9" stroke-width="3" stroke-linecap="round"></path>
                <g id="Group-17" transform="translate(8.000000, 16.500000)">
                    <path d="M76.901,8 L76.901,78.095 C76.901,80.243 75.144,82 72.996,82 L4.806,82 C2.658,82 0.901,80.243 0.901,78.095 L0.901,3.905 C0.901,1.757 2.658,0 4.806,0 L61.926,0" id="Fill-14" fill="#FFFFFF"></path>
                    <path d="M76.901,8 L76.901,78.095 C76.901,80.243 75.144,82 72.996,82 L4.806,82 C2.658,82 0.901,80.243 0.901,78.095 L0.901,3.905 C0.901,1.757 2.658,0 4.806,0 L61.926,0" id="Stroke-16" stroke="#5488F9" stroke-width="3" stroke-linecap="round"></path>
                </g>
                <path d="M69.901,113.5 L27.806,113.5 C25.658,113.5 23.901,111.743 23.901,109.595 L23.901,35.405 C23.901,33.257 25.658,31.5 27.806,31.5 L95.996,31.5 C98.144,31.5 99.901,33.257 99.901,35.405 L99.901,106.42 C99.901,110.071 96.973,113.049 93.322,113.109 L69.901,113.5 Z" id="Fill-18" fill="#FFFFFF"></path>
                <path d="M69.901,113.5 L27.806,113.5 C25.658,113.5 23.901,111.743 23.901,109.595 L23.901,35.405 C23.901,33.257 25.658,31.5 27.806,31.5 L95.996,31.5 C98.144,31.5 99.901,33.257 99.901,35.405 L99.901,106.42 C99.901,110.071 96.973,113.049 93.322,113.109 L69.901,113.5 Z" id="Stroke-20" stroke="#5488F9" stroke-width="3"></path>
                <path d="M70.901,51.5 L36.901,51.5 C36.351,51.5 35.901,51.05 35.901,50.5 C35.901,49.95 36.351,49.5 36.901,49.5 L70.901,49.5 C71.451,49.5 71.901,49.95 71.901,50.5 C71.901,51.05 71.451,51.5 70.901,51.5 Z" id="Stroke-22" stroke="#5488F9" stroke-width="2"></path>
                <path d="M49.901,64.5 L36.901,64.5 C36.351,64.5 35.901,64.05 35.901,63.5 C35.901,62.95 36.351,62.5 36.901,62.5 L49.901,62.5 C50.451,62.5 50.901,62.95 50.901,63.5 C50.901,64.05 50.451,64.5 49.901,64.5 Z" id="Stroke-24" stroke="#5488F9" stroke-width="2"></path>
                <path d="M70.901,98.5 L36.901,98.5 C36.351,98.5 35.901,98.95 35.901,99.5 C35.901,100.05 36.351,100.5 36.901,100.5 L70.901,100.5 C71.451,100.5 71.901,100.05 71.901,99.5 C71.901,98.95 71.451,98.5 70.901,98.5 Z" id="Stroke-26" stroke="#5488F9" stroke-width="2"></path>
                <path d="M49.901,85.5 L36.901,85.5 C36.351,85.5 35.901,85.95 35.901,86.5 C35.901,87.05 36.351,87.5 36.901,87.5 L49.901,87.5 C50.451,87.5 50.901,87.05 50.901,86.5 C50.901,85.95 50.451,85.5 49.901,85.5 Z" id="Stroke-28" stroke="#5488F9" stroke-width="2"></path>
                <path d="M76.901,0.5 L76.901,10.5" id="Stroke-30" stroke="#5488F9" stroke-width="3" stroke-linecap="round"></path>
                <path d="M90.8503,2.4629 L84.9523,10.5369" id="Stroke-32" stroke="#5488F9" stroke-width="3" stroke-linecap="round"></path>
                <path d="M102.446,12.416 L93.356,16.584" id="Stroke-34" stroke="#5488F9" stroke-width="3" stroke-linecap="round"></path>
                <path d="M87.2282,57.1445 C89.4982,54.8745 89.4982,51.4705 87.2282,49.2025 C84.9582,46.9325 81.5552,46.9325 79.2862,49.2025 C77.0162,51.4705 77.0162,54.8745 79.2862,57.1445 C81.5552,59.4135 84.9582,59.4135 87.2282,57.1445" id="Fill-36" fill="#5488F9"></path>
                <path d="M82.9733,61.1162 C77.3703,61.1162 73.0453,66.1502 73.0453,74.7312 C73.0453,76.6452 74.6763,78.0642 78.0093,78.9152 C81.3423,79.6952 84.6043,79.6952 87.9373,78.9152 C91.2703,78.0642 92.9013,76.6452 92.9013,74.7312 C92.9013,66.1502 88.5753,61.1152 82.9733,61.1162" id="Fill-38" fill="#5488F9"></path>
            </g>
        </g>
    </g>
</svg>