<?xml version="1.0" encoding="UTF-8"?>
<svg width="127px" height="144px" viewBox="0 0 127 144" version="1.1" xmlns="http://www.w3.org/2000/svg" xmlns:xlink="http://www.w3.org/1999/xlink">
    <!-- Generator: Sketch 43.1 (39012) - http://www.bohemiancoding.com/sketch -->
    <title>私信</title>
    <desc>Created with Sketch.</desc>
    <defs>
        <polygon id="path-1" points="126.37 0.5 126.37 89.6991192 -2.93818225e-05 89.6991192 -2.93818225e-05 0.5 126.37 0.5"></polygon>
    </defs>
    <g id="空页面" stroke="none" stroke-width="1" fill="none" fill-rule="evenodd">
        <g id="社交推广-空页面" transform="translate(-1881.000000, -56.000000)">
            <g id="私信" transform="translate(1881.000000, 57.000000)">
                <g id="Group-3" transform="translate(0.000000, 36.500000)">
                    <mask id="mask-2" fill="white">
                        <use xlink:href="#path-1"></use>
                    </mask>
                    <g id="Clip-2"></g>
                    <path d="M17.401,0.5 C17.401,0.5 7.635,6.031 2.401,16.5 C-4.599,30.5 4.401,60.5 20.401,68.5 C36.401,76.5 55.401,73.5 66.401,77.5 C77.401,81.5 80.401,93.5 97.401,88.5 C114.401,83.5 137.401,45.5 120.401,21.5 C103.401,-2.5 109.401,0.5 93.401,4.5 C77.401,8.5 17.401,0.5 17.401,0.5" id="Fill-1" fill="#F3F9FF" mask="url(#mask-2)"></path>
                </g>
                <path d="M4.401,141 L26.401,141" id="Stroke-4" stroke="#5488F9" stroke-width="3" stroke-linecap="round"></path>
                <path d="M37.401,141 L80.401,141" id="Stroke-6" stroke="#5488F9" stroke-width="3" stroke-linecap="round"></path>
                <path d="M92.401,141 L105.401,141" id="Stroke-8" stroke="#5488F9" stroke-width="3" stroke-linecap="round"></path>
                <path d="M105.5075,40.0059 C105.4855,37.8589 103.7095,36.1199 101.5615,36.1429 L96.9015,36.1919 L96.9015,82.4999 L66.9015,112.4999 L30.2685,112.4999 L30.2945,114.9939 C30.3175,117.1419 32.0925,118.8799 34.2405,118.8579 L76.3325,118.4129 L106.0155,88.0989 L105.5075,40.0059 Z" id="Fill-10" fill="#DCE9FF"></path>
                <path d="M84.901,24.5 L84.901,94.595 C84.901,96.743 83.144,98.5 80.996,98.5 L12.806,98.5 C10.658,98.5 8.901,96.743 8.901,94.595 L8.901,20.405 C8.901,18.257 10.658,16.5 12.806,16.5 L69.926,16.5" id="Stroke-12" stroke="#5488F9" stroke-width="3" stroke-linecap="round"></path>
                <g id="Group-17" transform="translate(8.000000, 16.500000)">
                    <path d="M76.901,8 L76.901,78.095 C76.901,80.243 75.144,82 72.996,82 L4.806,82 C2.658,82 0.901,80.243 0.901,78.095 L0.901,3.905 C0.901,1.757 2.658,0 4.806,0 L61.926,0" id="Fill-14" fill="#FFFFFF"></path>
                    <path d="M76.901,8 L76.901,78.095 C76.901,80.243 75.144,82 72.996,82 L4.806,82 C2.658,82 0.901,80.243 0.901,78.095 L0.901,3.905 C0.901,1.757 2.658,0 4.806,0 L61.926,0" id="Stroke-16" stroke="#5488F9" stroke-width="3" stroke-linecap="round"></path>
                </g>
                <path d="M69.901,113.5 L27.806,113.5 C25.658,113.5 23.901,111.743 23.901,109.595 L23.901,35.405 C23.901,33.257 25.658,31.5 27.806,31.5 L95.996,31.5 C98.144,31.5 99.901,33.257 99.901,35.405 L99.901,106.42 C99.901,110.071 96.973,113.049 93.322,113.109 L69.901,113.5 Z" id="Fill-18" fill="#FFFFFF"></path>
                <path d="M69.901,113.5 L27.806,113.5 C25.658,113.5 23.901,111.743 23.901,109.595 L23.901,35.405 C23.901,33.257 25.658,31.5 27.806,31.5 L95.996,31.5 C98.144,31.5 99.901,33.257 99.901,35.405 L99.901,106.42 C99.901,110.071 96.973,113.049 93.322,113.109 L69.901,113.5 Z" id="Stroke-20" stroke="#5488F9" stroke-width="3"></path>
                <path d="M70.901,51.5 L36.901,51.5 C36.351,51.5 35.901,51.05 35.901,50.5 C35.901,49.95 36.351,49.5 36.901,49.5 L70.901,49.5 C71.451,49.5 71.901,49.95 71.901,50.5 C71.901,51.05 71.451,51.5 70.901,51.5 Z" id="Stroke-22" stroke="#5488F9" stroke-width="2"></path>
                <path d="M49.901,64.5 L36.901,64.5 C36.351,64.5 35.901,64.05 35.901,63.5 C35.901,62.95 36.351,62.5 36.901,62.5 L49.901,62.5 C50.451,62.5 50.901,62.95 50.901,63.5 C50.901,64.05 50.451,64.5 49.901,64.5 Z" id="Stroke-24" stroke="#5488F9" stroke-width="2"></path>
                <path d="M70.901,98.5 L36.901,98.5 C36.351,98.5 35.901,98.95 35.901,99.5 C35.901,100.05 36.351,100.5 36.901,100.5 L70.901,100.5 C71.451,100.5 71.901,100.05 71.901,99.5 C71.901,98.95 71.451,98.5 70.901,98.5 Z" id="Stroke-26" stroke="#5488F9" stroke-width="2"></path>
                <path d="M49.901,85.5 L36.901,85.5 C36.351,85.5 35.901,85.95 35.901,86.5 C35.901,87.05 36.351,87.5 36.901,87.5 L49.901,87.5 C50.451,87.5 50.901,87.05 50.901,86.5 C50.901,85.95 50.451,85.5 49.901,85.5 Z" id="Stroke-28" stroke="#5488F9" stroke-width="2"></path>
                <path d="M76.901,0.5 L76.901,10.5" id="Stroke-30" stroke="#5488F9" stroke-width="3" stroke-linecap="round"></path>
                <path d="M90.8503,2.4629 L84.9523,10.5369" id="Stroke-32" stroke="#5488F9" stroke-width="3" stroke-linecap="round"></path>
                <path d="M102.446,12.416 L93.356,16.584" id="Stroke-34" stroke="#5488F9" stroke-width="3" stroke-linecap="round"></path>
                <path d="M86.4489,55.501 C88.1139,55.472 89.0009,56.077 89.8469,56.851 C90.5639,56.789 91.4979,56.388 92.0479,56.106 C92.2259,56.011 92.4049,55.911 92.5839,55.814 C92.2699,56.663 91.8439,57.327 91.1899,57.831 C91.0439,57.942 90.8999,58.094 90.7199,58.164 L90.7199,58.173 C91.6529,58.164 92.4229,57.743 93.1509,57.515 L93.1509,57.526 C92.7679,58.135 92.2469,58.756 91.6939,59.197 C91.4709,59.376 91.2459,59.552 91.0229,59.73 C91.0349,60.717 91.0089,61.659 90.8249,62.49 C89.7509,67.314 86.9059,70.591 82.4039,71.993 C80.7889,72.496 78.1759,72.704 76.3229,72.245 C75.4039,72.017 74.5749,71.759 73.7939,71.42 C73.3609,71.23 72.9599,71.024 72.5759,70.793 C72.4509,70.717 72.3249,70.641 72.1989,70.564 C72.6169,70.576 73.1059,70.69 73.5709,70.617 C73.9929,70.55 74.4089,70.567 74.7979,70.483 C75.7689,70.27 76.6329,69.988 77.3769,69.552 C77.7359,69.342 78.2839,69.093 78.5409,68.788 C78.0579,68.797 77.6189,68.686 77.2619,68.558 C75.8719,68.065 75.0609,67.164 74.5369,65.809 C74.9589,65.855 76.1739,65.964 76.4569,65.724 C75.9279,65.694 75.4189,65.388 75.0529,65.159 C73.9339,64.46 73.0209,63.286 73.0299,61.48 C73.1769,61.551 73.3229,61.618 73.4719,61.688 C73.7529,61.809 74.0399,61.869 74.3739,61.939 C74.5129,61.969 74.7979,62.054 74.9619,61.992 L74.9409,61.992 C74.7239,61.741 74.3739,61.574 74.1539,61.305 C73.4369,60.412 72.7629,59.039 73.1879,57.403 C73.2969,56.988 73.4669,56.622 73.6499,56.285 C73.6559,56.288 73.6649,56.291 73.6709,56.297 C73.7559,56.473 73.9399,56.602 74.0569,56.748 C74.4239,57.201 74.8769,57.611 75.3369,57.971 C76.9049,59.197 78.3189,59.952 80.5899,60.512 C81.1669,60.652 81.8309,60.764 82.5179,60.764 C82.3249,60.201 82.3869,59.291 82.5389,58.747 C82.9229,57.377 83.7539,56.391 84.9709,55.861 C85.2629,55.735 85.5859,55.642 85.9259,55.568 C86.0999,55.545 86.2729,55.524 86.4489,55.501" id="Fill-36" fill="#5488F9"></path>
            </g>
        </g>
    </g>
</svg>